<?xml version="1.0" encoding="utf-8"?>
<!-- Generator: Adobe Illustrator 24.3.0, SVG Export Plug-In . SVG Version: 6.00 Build 0)  -->
<svg version="1.1" id="Camada_2" xmlns="http://www.w3.org/2000/svg" xmlns:xlink="http://www.w3.org/1999/xlink" x="0px" y="0px"
	 viewBox="0 0 24 24" style="enable-background:new 0 0 24 24;" xml:space="preserve">
<path d="M20.1,11.4H13V4.3c0-0.5-0.4-0.9-0.8-0.9h-0.4c-0.5,0-0.9,0.4-0.9,0.9v7.1H3.9c-0.5,0-0.8,0.4-0.8,0.8v0.4
	c0,0.5,0.4,0.8,0.8,0.8H11v7.1c0,0.5,0.4,0.9,0.9,0.9h0.4c0.5,0,0.8-0.4,0.8-0.9v-7.1h7.1c0.5,0,0.9-0.4,0.9-0.8v-0.4
	C21,11.8,20.6,11.4,20.1,11.4z"/>
</svg>
