<?xml version="1.0" encoding="utf-8"?>
<!-- Generator: Adobe Illustrator 24.3.0, SVG Export Plug-In . SVG Version: 6.00 Build 0)  -->
<svg version="1.1" id="Camada_2" xmlns="http://www.w3.org/2000/svg" xmlns:xlink="http://www.w3.org/1999/xlink" x="0px" y="0px"
	 viewBox="0 0 24 24" style="enable-background:new 0 0 24 24;" xml:space="preserve">
<path d="M21.2,6.8h-1.9V4c0-1.4-1.1-2.5-2.5-2.5H9C7.6,1.5,6.5,2.7,6.5,4v2.7H4.5C3.2,6.8,2,7.9,2,9.3v6.1c0,1.4,1.1,2.5,2.5,2.5
	h1.9v2.7c0,1.4,1.1,2.5,2.5,2.5h7.8c1.4,0,2.5-1.1,2.5-2.5v-2.7h1.9c1.4,0,2.5-1.1,2.5-2.5V9.3C23.7,7.9,22.6,6.8,21.2,6.8z M8,4
	c0-0.6,0.5-1,1-1h7.8c0.6,0,1,0.5,1,1v2.7H8V4z M17.8,20.7c0,0.6-0.5,1-1,1H9c-0.6,0-1-0.5-1-1v-2.7v-3.5h9.8v3.5V20.7z M22.2,15.4
	c0,0.6-0.5,1-1,1h-1.9V13H6.5v3.5H4.5c-0.6,0-1-0.5-1-1V9.3c0-0.6,0.5-1,1-1h1.9h12.8h1.9c0.6,0,1,0.5,1,1V15.4z"/>
<path d="M9.6,16.9c0.8,0,1.5,0,2.2,0c0.5,0,0.5-1,0-1c-0.8,0-1.5,0-2.2,0C9,15.9,9,16.9,9.6,16.9L9.6,16.9z"/>
<path d="M9.4,18.7c0.7,0,5.4,0,6.1,0c0.5,0,0.5-1,0-1c-0.7,0-5.4,0-6.1,0C8.8,17.7,8.8,18.7,9.4,18.7L9.4,18.7z"/>
<path d="M9.5,20.4c0.7,0,5.2,0,6,0c0.5,0,0.5-1,0-1c-0.7,0-5.2,0-6,0C8.9,19.4,8.9,20.4,9.5,20.4L9.5,20.4z"/>
</svg>
