<?xml version="1.0" encoding="utf-8"?>
<!-- Generator: Adobe Illustrator 24.3.0, SVG Export Plug-In . SVG Version: 6.00 Build 0)  -->
<svg version="1.1" id="Camada_1" xmlns="http://www.w3.org/2000/svg" xmlns:xlink="http://www.w3.org/1999/xlink" x="0px" y="0px"
	 viewBox="0 0 24 24" style="enable-background:new 0 0 24 24;" xml:space="preserve">
<style type="text/css">
	.st0{fill:none;stroke:#000000;stroke-width:1.5;stroke-miterlimit:10;}
	.st1{fill:none;}
</style>
<path class="st0" d="M15.5,22.5h-5.2c-1.3,0-2.3-0.9-2.5-2.2l-1.9-12c-0.2-1.6,1-3,2.5-3h8.8c1.6,0,2.8,1.4,2.5,2.9L18,20.3
	C17.8,21.6,16.8,22.5,15.5,22.5z"/>
<g>
	<line class="st1" x1="10.7" y1="2.3" x2="15" y2="2.3"/>
	<g>
		<path d="M10.7,3.1c1.5,0,2.9,0,4.4,0c1,0,1-1.6,0-1.6c-1.5,0-2.9,0-4.4,0C9.6,1.5,9.6,3.1,10.7,3.1L10.7,3.1z"/>
	</g>
</g>
<g>
	<line class="st1" x1="12.8" y1="12.2" x2="12.9" y2="18.6"/>
	<g>
		<path d="M12,12.2c0,2.2,0,4.3,0.1,6.5c0,1,1.6,1,1.6,0c0-2.2,0-4.3-0.1-6.5C13.6,11.2,12,11.1,12,12.2L12,12.2z"/>
	</g>
</g>
<g>
	<line class="st1" x1="16" y1="12.2" x2="14.9" y2="18.7"/>
	<g>
		<path d="M15.2,12c-0.4,2.2-0.8,4.3-1.1,6.5c-0.2,1,1.4,1.5,1.6,0.4c0.4-2.2,0.8-4.3,1.1-6.5C17,11.4,15.4,11,15.2,12L15.2,12z"/>
	</g>
</g>
<g>
	<line class="st1" x1="9.7" y1="12.2" x2="10.8" y2="18.7"/>
	<g>
		<path d="M8.9,12.4c0.4,2.2,0.7,4.3,1.1,6.5c0.2,1,1.7,0.6,1.6-0.4c-0.4-2.2-0.7-4.3-1.1-6.5C10.3,11,8.7,11.4,8.9,12.4L8.9,12.4z"
			/>
	</g>
</g>
</svg>
